<svg id="图层_1" data-name="图层 1" xmlns="http://www.w3.org/2000/svg" viewBox="0 0 112.67 96.67"><defs><style>.cls-1{fill:#070f2a;}.cls-2{fill:#2ab7b9;}.cls-3{fill:#117e7d;}</style></defs><title>图标+文字-黑色竖版</title><rect class="cls-1" width="112.67" height="96.67"/><path class="cls-2" d="M305.71,305h2.49v-1a.31.31,0,0,1,.31-.31h0a.31.31,0,0,1,.31.31v1h3.27a.3.3,0,0,1,.31.31v0a.3.3,0,0,1-.31.31h-3.27v2h3.4a.3.3,0,0,1,.31.3h0a.3.3,0,0,1-.31.31h-1.59v2.66a.48.48,0,0,0,.16.38.52.52,0,0,0,.37.16h1a.3.3,0,0,1,.31.31v0a.3.3,0,0,1-.31.31h-1a1.17,1.17,0,0,1-1.07-.71,1.24,1.24,0,0,1-.08-.45V308.2h-2.93s0,0,0,.06a7.82,7.82,0,0,1-.21.89,4.87,4.87,0,0,1-1.14,2,7.66,7.66,0,0,1-.73.71.32.32,0,0,1-.24.06.26.26,0,0,1-.2-.12v0a.32.32,0,0,1,.06-.42,4.82,4.82,0,0,0,1.68-2.38c.06-.22.13-.48.19-.74h-1.68a.3.3,0,0,1-.3-.31h0a.29.29,0,0,1,.3-.3h3.41v-2h-2.92a.33.33,0,0,1-.26-.13.3.3,0,0,1,0-.28l.42-1.18a.29.29,0,0,1,.38-.19h0a.3.3,0,0,1,.19.39Z" transform="translate(-259.82 -227.34)"/><path class="cls-2" d="M317.24,308.16a.31.31,0,0,1-.31-.31v0a.32.32,0,0,1,.31-.31h1.36v-2.25h-1.13a.29.29,0,0,1-.29-.4l.29-.88a.32.32,0,0,1,.39-.19h0a.31.31,0,0,1,.19.39l-.16.45h2.49a.31.31,0,0,1,.31.31h0a.3.3,0,0,1-.31.31h-1.16v2.25h1.29a.32.32,0,0,1,.31.31v0a.31.31,0,0,1-.31.31h-1.07l1.35,3.06a.31.31,0,0,1-.15.41h0a.31.31,0,0,1-.41-.16l-1.13-2.59a4.72,4.72,0,0,1-.21.79,7,7,0,0,1-.57,1.2,6.69,6.69,0,0,1-.73,1,.29.29,0,0,1-.21.1.3.3,0,0,1-.22-.09h0a.3.3,0,0,1,0-.42,6.08,6.08,0,0,0,1.18-2,4.41,4.41,0,0,0,.25-1l0-.24Zm5.44,3.53a1.13,1.13,0,0,1-1.07-.7,1.29,1.29,0,0,1-.09-.46v-5.21a1.33,1.33,0,0,1,.09-.45,1.15,1.15,0,0,1,1.07-.7h1.43a1.15,1.15,0,0,1,1.16,1.15v5.21a1.15,1.15,0,0,1-1.16,1.16Zm1.43-.63a.5.5,0,0,0,.38-.15.53.53,0,0,0,.16-.38v-5.21a.5.5,0,0,0-.16-.36.51.51,0,0,0-.38-.16h-1.43a.56.56,0,0,0-.38.16.49.49,0,0,0-.15.36v5.21a.52.52,0,0,0,.15.38.55.55,0,0,0,.38.15Z" transform="translate(-259.82 -227.34)"/><path class="cls-2" d="M270,286.61a.59.59,0,0,1,.62-.59.16.16,0,0,1,.09,0,.24.24,0,0,1,.11,0l.51,0h0l.51-.05c.64-.05,1.24-.09,1.82-.09a5.19,5.19,0,0,1,2.39.46,3.69,3.69,0,0,1,1.67,3.14,4,4,0,0,1-.46,2.09,3.07,3.07,0,0,1-1.13,1.21h0a6,6,0,0,1-3,.62c-.48,0-1,0-1.44-.05l-.37,0h-.11v4.35a.58.58,0,0,1-.6.57.57.57,0,0,1-.57-.57Zm1.31,5.54.37,0c.44,0,.92.05,1.38.05a4.86,4.86,0,0,0,2.44-.48,1.64,1.64,0,0,0,.71-.73,3.2,3.2,0,0,0,.32-1.53,3.47,3.47,0,0,0-.39-1.51v0a1.94,1.94,0,0,0-.66-.66,3.82,3.82,0,0,0-1.79-.34c-.55,0-1.15.05-1.79.11l-.74.05v5Z" transform="translate(-259.82 -227.34)"/><path class="cls-2" d="M290.81,297.38a.74.74,0,0,1,.07.43.45.45,0,0,1-.3.37h0a.57.57,0,0,1-.78-.18c-1-1.58-2-3.23-3-4.83-.23,0-.48,0-.73,0-.5,0-1,0-1.47,0l-.39,0h-.09v4.7a.58.58,0,1,1-1.17,0V286.55a.53.53,0,0,1,.35-.51.07.07,0,0,1,.05,0,.11.11,0,0,1,.07,0l.05,0h.16c.27,0,.73,0,.91-.05.6,0,1.21-.07,1.79-.07a6.08,6.08,0,0,1,2.66.5,3.64,3.64,0,0,1,1.68,3.05,4,4,0,0,1-.43,2,3,3,0,0,1-1.19,1.24,3.79,3.79,0,0,1-1,.39ZM284.27,292l.37,0c.44,0,.94.05,1.4.05a5.17,5.17,0,0,0,2.46-.46,1.63,1.63,0,0,0,.71-.76,2.53,2.53,0,0,0,.28-1.37,3.12,3.12,0,0,0-.36-1.35,1.64,1.64,0,0,0-.67-.71,4.76,4.76,0,0,0-2.13-.37c-.55,0-1.1,0-1.7.07a3.53,3.53,0,0,0-.51,0V292Z" transform="translate(-259.82 -227.34)"/><path class="cls-2" d="M314,286.61a.59.59,0,0,1,.62-.59.16.16,0,0,1,.09,0,.23.23,0,0,1,.11,0l.51,0h0l.52-.05c.64-.05,1.24-.09,1.82-.09a5.19,5.19,0,0,1,2.39.46,3.69,3.69,0,0,1,1.66,3.14,4,4,0,0,1-.46,2.09,3.07,3.07,0,0,1-1.13,1.21h0a6,6,0,0,1-3,.62c-.48,0-1,0-1.44-.05l-.37,0h-.11v4.35a.58.58,0,0,1-.6.57.57.57,0,0,1-.57-.57Zm1.31,5.54.37,0c.44,0,.92.05,1.38.05a4.86,4.86,0,0,0,2.45-.48,1.64,1.64,0,0,0,.71-.73,3.2,3.2,0,0,0,.32-1.53,3.47,3.47,0,0,0-.39-1.51v0a1.94,1.94,0,0,0-.65-.66,3.82,3.82,0,0,0-1.79-.34c-.55,0-1.15.05-1.79.11l-.74.05v5Z" transform="translate(-259.82 -227.34)"/><path class="cls-2" d="M335.49,297.82a.59.59,0,0,1-1.19,0v-5.47h-6.24v5.47a.58.58,0,0,1-.6.58.58.58,0,0,1-.57-.58V286.39a.56.56,0,0,1,.6-.55.55.55,0,0,1,.57.55v4.81h6.24v-4.81a.57.57,0,0,1,.62-.55.56.56,0,0,1,.57.55Z" transform="translate(-259.82 -227.34)"/><path class="cls-2" d="M347.34,287l-.28,0h-.28l-1.1,0a12.43,12.43,0,0,0-1.43.07,2.11,2.11,0,0,0-1.37.64,2.32,2.32,0,0,0-.44,1.63l0,2h5.3a.57.57,0,0,1,.57.6.56.56,0,0,1-.57.57h-5.28l.05,2.64a2.31,2.31,0,0,0,.42,1.51,2,2,0,0,0,1.21.55,7.43,7.43,0,0,0,1.29.09c.67,0,1.42-.05,2-.11a.85.85,0,0,1,.52.21.72.72,0,0,1,.12.36.59.59,0,0,1-.53.6c-.62.05-1.45.11-2.18.11a9.12,9.12,0,0,1-1.44-.09,3.31,3.31,0,0,1-1.88-.92,3.53,3.53,0,0,1-.73-2.29l-.09-5.87a3.42,3.42,0,0,1,.73-2.41,3.16,3.16,0,0,1,2.09-1,13.69,13.69,0,0,1,1.75-.09c.43,0,.83,0,1.24,0h.53a.6.6,0,0,1,.59.6.57.57,0,0,1-.18.41.63.63,0,0,1-.41.16Z" transform="translate(-259.82 -227.34)"/><path class="cls-2" d="M361.72,286.11a.58.58,0,0,1,.57.62.56.56,0,0,1-.57.55h-3.26v10.56a.59.59,0,0,1-1.17,0V287.28h-3.17a.59.59,0,0,1,0-1.17Z" transform="translate(-259.82 -227.34)"/><path class="cls-2" d="M308.72,291.87a6.3,6.3,0,1,1-6.3-6.3A6.3,6.3,0,0,1,308.72,291.87Zm-6.3-5.2a5.2,5.2,0,1,0,5.2,5.2A5.2,5.2,0,0,0,302.42,286.67Z" transform="translate(-259.82 -227.34)"/><path class="cls-2" d="M315.88,271.62a4,4,0,1,1,4-4A4,4,0,0,1,315.88,271.62Zm0-6a2,2,0,1,0,2,2A2,2,0,0,0,315.88,265.61Z" transform="translate(-259.82 -227.34)"/><path class="cls-3" d="M307.34,268.41h0a.77.77,0,0,1-.77-.77,29.75,29.75,0,0,1,8.77-21.17.77.77,0,0,1,1.09,1.09,28.22,28.22,0,0,0-8.32,20.08A.77.77,0,0,1,307.34,268.41Z" transform="translate(-259.82 -227.34)"/><path class="cls-3" d="M322.35,279.25a.77.77,0,0,1-.38-1.45A30,30,0,0,1,345,275.28V240.56a28.24,28.24,0,0,0-28.62,7,.77.77,0,1,1-1.09-1.09,29.78,29.78,0,0,1,30.73-7.2.77.77,0,0,1,.53.73v36.33a.77.77,0,0,1-.32.63.78.78,0,0,1-.7.11,28.45,28.45,0,0,0-22.85,2.09A.77.77,0,0,1,322.35,279.25Z" transform="translate(-259.82 -227.34)"/><path class="cls-3" d="M324.32,268.41a.77.77,0,0,1-.77-.77,7.66,7.66,0,0,0-15.33,0,.77.77,0,0,1-.77.77h0a.77.77,0,0,1-.77-.77,9.21,9.21,0,0,1,18.42,0,.77.77,0,0,1-.77.77Z" transform="translate(-259.82 -227.34)"/><path class="cls-2" d="M315.89,276.86a9.08,9.08,0,0,1-7-3.34.77.77,0,0,1,1.19-1,7.52,7.52,0,0,0,11.67,0,.77.77,0,1,1,1.19,1A9.08,9.08,0,0,1,315.89,276.86Z" transform="translate(-259.82 -227.34)"/><path class="cls-2" d="M324.43,268.41a.77.77,0,0,1-.77-.77,28.2,28.2,0,0,0-8.32-20.08.77.77,0,1,1,1.09-1.09,29.74,29.74,0,0,1,8.77,21.17A.77.77,0,0,1,324.43,268.41Z" transform="translate(-259.82 -227.34)"/><path class="cls-2" d="M309.42,279.25a.77.77,0,0,1-.38-.1,28.46,28.46,0,0,0-22.85-2.09.77.77,0,0,1-1-.73V240a.77.77,0,0,1,.53-.73,29.79,29.79,0,0,1,30.73,7.2.77.77,0,1,1-1.09,1.09,28.24,28.24,0,0,0-28.62-7v34.71a30,30,0,0,1,23.08,2.53.77.77,0,0,1-.38,1.45Z" transform="translate(-259.82 -227.34)"/></svg>